<?xml version="1.0" standalone="no"?>
<!DOCTYPE svg PUBLIC "-//W3C//DTD SVG 20010904//EN"
 "http://www.w3.org/TR/2001/REC-SVG-20010904/DTD/svg10.dtd">
<svg version="1.0" xmlns="http://www.w3.org/2000/svg"
 width="640.000000pt" height="640.000000pt" viewBox="0 0 640.000000 640.000000"
 preserveAspectRatio="xMidYMid meet">
<metadata>
Created by potrace 1.11, written by Peter Selinger 2001-2013
</metadata>
<g transform="translate(0.000000,640.000000) scale(0.100000,-0.100000)"
fill="#000000" stroke="none">
<path d="M6100 6381 c0 -21 26 -36 36 -20 9 15 -3 39 -21 39 -8 0 -15 -9 -15
-19z"/>
<path d="M6151 6364 c0 -11 3 -14 6 -6 3 7 2 16 -1 19 -3 4 -6 -2 -5 -13z"/>
<path d="M5948 6340 c-16 -17 -28 -37 -28 -45 0 -8 -5 -15 -10 -15 -6 0 -8
-10 -4 -24 6 -27 -13 -46 -22 -22 -8 20 -34 21 -34 1 0 -9 -7 -18 -15 -21 -8
-4 -15 -11 -15 -16 0 -6 -8 -17 -17 -24 -10 -7 -13 -14 -7 -14 6 0 9 -13 6
-30 -4 -26 -7 -28 -24 -19 -26 14 -38 -2 -38 -48 0 -26 -4 -33 -20 -33 -11 0
-20 -3 -21 -7 0 -5 -2 -18 -3 -31 -3 -29 -21 -48 -30 -33 -4 6 -2 11 3 11 6 0
11 4 11 9 0 4 -17 8 -37 7 -31 -1 -37 -4 -35 -20 2 -11 -1 -15 -7 -11 -6 3
-11 2 -11 -4 0 -5 4 -12 10 -16 5 -3 6 -15 1 -27 -6 -17 -3 -26 12 -39 15 -12
21 -27 20 -55 -3 -79 -11 -131 -22 -152 -10 -18 -8 -26 8 -43 24 -26 46 -118
32 -132 -12 -12 -31 0 -31 19 0 8 -3 14 -8 14 -4 0 -6 17 -4 38 3 34 1 38 -22
40 -14 1 -26 -2 -26 -6 0 -4 -14 -13 -31 -21 -37 -16 -46 -35 -26 -56 20 -19
63 -25 60 -7 -2 6 1 12 6 12 12 0 19 -56 9 -74 -10 -18 18 -36 57 -36 21 0 26
-4 21 -16 -3 -9 -6 -18 -6 -20 0 -2 -9 -4 -20 -4 -14 0 -20 -7 -20 -23 0 -16
-6 -23 -22 -24 -13 -1 -33 -13 -45 -27 -26 -31 -51 -25 -59 13 -10 47 -14 53
-30 47 -8 -3 -12 -2 -9 4 7 11 -6 13 -30 4 -15 -6 -15 -8 1 -25 11 -12 17 -40
19 -81 3 -62 3 -64 -36 -99 -34 -31 -37 -38 -24 -49 20 -17 19 -36 -4 -74 -10
-17 -22 -49 -25 -71 -10 -61 -21 -72 -36 -36 -7 17 -17 31 -22 31 -5 0 -2 7 6
16 24 23 21 70 -5 77 -16 4 -37 -10 -93 -66 l-72 -72 -72 5 c-43 3 -73 1 -75
-5 -2 -5 -28 -10 -57 -11 -31 0 -56 -6 -58 -12 -5 -17 -39 -15 -46 4 -7 18 19
61 45 75 13 6 25 6 39 -3 17 -11 22 -10 30 2 12 19 0 30 -35 34 -15 2 -34 11
-41 20 -11 16 -14 16 -29 -8 -14 -21 -15 -29 -5 -41 11 -13 8 -15 -16 -17 -16
0 -39 0 -50 1 -23 2 -47 -27 -58 -71 -6 -26 -36 -40 -36 -18 0 14 -27 12 -32
-2 -9 -27 13 -97 32 -103 11 -4 20 -15 20 -26 0 -25 -8 -24 -30 4 -18 21 -19
21 -32 4 -13 -18 -14 -17 -33 3 -14 15 -20 17 -26 8 -7 -10 -11 -10 -21 0 -17
17 -38 15 -38 -3 0 -8 -5 -15 -10 -15 -6 0 -15 -11 -21 -24 -10 -21 -8 -28 14
-52 14 -15 23 -32 21 -38 -5 -12 -51 -36 -69 -36 -13 0 -45 -36 -45 -50 0 -6
-4 -10 -10 -10 -13 0 -13 37 1 46 6 3 -3 14 -22 26 -26 16 -34 17 -40 6 -15
-23 -10 -48 9 -48 16 0 17 -5 8 -60 -5 -33 -13 -60 -18 -60 -4 0 -8 -27 -8
-60 0 -33 -4 -60 -9 -60 -7 0 -19 -29 -25 -60 -1 -3 -5 -11 -9 -17 -10 -16 -1
-33 17 -33 7 0 25 -11 40 -25 33 -31 59 -45 82 -45 10 0 32 -13 49 -29 16 -16
62 -41 100 -56 74 -29 127 -57 160 -85 11 -10 34 -21 50 -25 39 -11 36 -10 65
-24 39 -19 61 -32 131 -83 36 -26 78 -50 93 -54 14 -3 32 -14 39 -23 12 -16
103 -81 113 -81 7 0 66 -44 118 -87 22 -18 45 -33 53 -33 7 0 22 -13 34 -30
12 -16 39 -36 61 -44 21 -9 38 -20 38 -26 0 -5 6 -10 13 -10 6 -1 23 -15 37
-32 32 -39 54 -61 126 -123 59 -51 82 -73 200 -186 73 -69 160 -167 210 -234
16 -22 54 -69 84 -105 30 -36 66 -83 80 -105 23 -37 41 -62 65 -89 6 -6 24
-38 40 -70 l30 -59 3 1818 c1 1000 0 1820 -3 1823 -2 3 -11 -1 -19 -8 -9 -6
-21 -10 -28 -7 -8 4 -7 6 5 6 13 1 17 10 17 42 0 39 -1 41 -26 36 -32 -6 -64
22 -64 56 0 35 -15 51 -41 44 -13 -3 -29 -1 -36 5 -10 8 -17 8 -25 0 -11 -11
-23 -9 -76 15 -22 9 -47 12 -77 7 -54 -8 -69 12 -36 45 12 12 21 26 21 31 0
20 -36 9 -62 -20z m0 -168 c2 -6 -6 -10 -16 -9 -12 1 -18 6 -15 14 6 16 25 13
31 -5z m-30 -47 c-3 -3 -9 2 -12 12 -6 14 -5 15 5 6 7 -7 10 -15 7 -18z m376
-5 c9 0 16 -8 16 -21 0 -13 4 -18 12 -13 6 4 8 3 5 -3 -3 -5 -22 -7 -41 -5
-34 4 -36 6 -36 41 1 32 2 34 14 19 7 -10 21 -18 30 -18z m-556 -459 c3 -46 1
-52 -15 -49 -14 2 -18 13 -18 48 -1 52 3 62 18 57 7 -2 13 -27 15 -56z m-44
-76 c-4 -8 -10 -12 -15 -9 -14 8 -10 24 6 24 9 0 12 -6 9 -15z m-189 -553 c-8
-8 -25 10 -19 20 4 6 9 5 15 -3 4 -7 6 -15 4 -17z m-45 -112 c0 -10 -31 -22
-38 -16 -2 3 -2 12 1 20 6 15 37 12 37 -4z m-312 -139 c10 -6 6 -10 -15 -14
-34 -6 -54 4 -27 14 25 10 27 10 42 0z m-538 -145 c0 -3 -4 -8 -10 -11 -5 -3
-10 -1 -10 4 0 6 5 11 10 11 6 0 10 -2 10 -4z m-270 -50 c0 -3 -4 -8 -10 -11
-5 -3 -10 -1 -10 4 0 6 5 11 10 11 6 0 10 -2 10 -4z m-13 -238 c-3 -8 -6 -5
-6 6 -1 11 2 17 5 13 3 -3 4 -12 1 -19z"/>
<path d="M5757 6294 c-11 -12 3 -24 29 -24 27 0 32 15 8 24 -20 8 -29 8 -37 0z"/>
<path d="M5825 6280 c3 -5 8 -10 11 -10 2 0 4 5 4 10 0 6 -5 10 -11 10 -5 0
-7 -4 -4 -10z"/>
<path d="M5624 6256 c-4 -10 -2 -22 4 -28 8 -8 13 -7 18 6 4 10 2 22 -4 28 -8
8 -13 7 -18 -6z"/>
<path d="M5741 6252 c-9 -18 -8 -23 8 -32 23 -12 47 -5 55 16 5 13 2 16 -26
18 -7 1 -16 5 -19 10 -4 5 -12 -1 -18 -12z"/>
<path d="M5620 6045 c0 -35 4 -45 16 -45 11 0 14 5 10 16 -3 9 -6 29 -6 45 0
16 -4 29 -10 29 -5 0 -10 -20 -10 -45z"/>
<path d="M5525 5990 c-8 -13 4 -32 18 -27 16 5 17 37 2 37 -8 0 -17 -4 -20
-10z"/>
<path d="M5511 5843 c0 -6 -11 -15 -23 -19 -22 -7 -22 -7 -3 -15 13 -5 15 -8
5 -8 -8 -1 -21 -5 -28 -9 -17 -12 -32 -108 -18 -122 17 -17 48 -11 53 10 3 11
10 20 15 20 6 0 8 14 6 30 -3 17 -1 30 4 30 4 0 8 7 8 15 0 10 10 15 26 15 22
0 25 3 20 23 -3 12 -6 25 -6 30 0 4 -7 7 -15 7 -8 0 -14 -3 -13 -7 0 -5 -3
-17 -8 -28 -8 -18 -9 -17 -15 10 -4 17 -7 25 -8 18z"/>
<path d="M5345 5778 c-4 -18 -16 -46 -27 -61 -11 -15 -21 -38 -23 -50 -1 -12
-6 -29 -9 -38 -4 -9 -1 -21 7 -27 11 -10 18 -5 33 23 10 20 29 38 41 41 25 7
28 41 10 107 -13 46 -23 47 -32 5z"/>
<path d="M5177 5623 c-12 -12 -7 -22 8 -17 8 4 15 10 15 15 0 11 -14 12 -23 2z"/>
<path d="M5364 5515 c3 -60 40 -68 46 -10 4 37 0 45 -23 45 -21 0 -24 -5 -23
-35z"/>
<path d="M5432 5510 c0 -14 2 -19 5 -12 2 6 2 18 0 25 -3 6 -5 1 -5 -13z"/>
<path d="M5344 5422 c-15 -11 -23 -32 -27 -64 -4 -45 -3 -48 19 -49 13 -1 30
-2 37 -3 6 -1 12 10 12 24 0 14 4 28 9 31 8 7 -13 79 -24 79 -3 0 -15 -8 -26
-18z"/>
<path d="M5520 5423 c0 -5 7 -16 14 -26 12 -16 18 -17 37 -7 22 12 22 13 -11
26 -37 16 -40 17 -40 7z"/>
<path d="M5272 5285 c4 -4 1 -14 -7 -22 -19 -18 -19 -33 -1 -33 19 0 48 29 43
44 -2 6 -12 13 -23 15 -10 2 -16 0 -12 -4z"/>
<path d="M5221 5206 c-9 -10 -11 -25 -6 -43 l8 -28 9 33 c11 42 6 59 -11 38z"/>
<path d="M5136 5113 c-4 -9 -1 -20 6 -24 15 -9 44 5 52 26 4 11 -2 15 -23 15
-18 0 -31 -6 -35 -17z"/>
<path d="M4720 5024 c0 -8 5 -12 10 -9 6 4 8 11 5 16 -9 14 -15 11 -15 -7z"/>
<path d="M4987 5033 c-4 -3 -7 -13 -7 -20 0 -10 5 -11 16 -5 9 5 37 7 63 5 43
-5 45 -4 26 11 -20 15 -86 22 -98 9z"/>
<path d="M4472 4948 c5 -15 37 -18 41 -3 1 6 -9 12 -22 13 -16 3 -22 -1 -19
-10z"/>
<path d="M4650 4910 c0 -5 5 -10 10 -10 6 0 10 5 10 10 0 6 -4 10 -10 10 -5 0
-10 -4 -10 -10z"/>
<path d="M4602 4828 c-16 -16 -15 -28 3 -28 8 0 15 9 15 20 0 23 -2 24 -18 8z"/>
<path d="M4465 4781 c-3 -5 -1 -12 5 -16 5 -3 10 1 10 9 0 18 -6 21 -15 7z"/>
<path d="M4400 4664 c0 -8 5 -12 10 -9 6 3 10 10 10 16 0 5 -4 9 -10 9 -5 0
-10 -7 -10 -16z"/>
<path d="M12 4117 c7 -12 12 -24 11 -27 -1 -3 19 -18 43 -35 24 -16 42 -36 39
-42 -2 -7 0 -13 4 -13 5 0 11 6 13 12 6 18 32 -10 36 -38 2 -16 -4 -23 -22
-28 -23 -6 -24 -9 -14 -39 5 -17 12 -39 14 -47 6 -20 -14 -49 -23 -34 -14 20
-42 24 -51 7 -6 -11 -11 -12 -16 -4 -13 21 -46 13 -46 -11 1 -29 25 -63 35
-48 10 17 24 2 18 -20 -3 -11 2 -31 10 -44 18 -26 13 -36 -15 -36 -13 0 -20
10 -25 30 -9 47 -23 35 -23 -19 0 -47 1 -49 24 -45 14 2 28 0 31 -6 3 -5 0
-10 -8 -10 -8 0 -17 -7 -21 -15 -4 -10 1 -15 14 -15 11 0 20 -7 20 -15 0 -10
-10 -15 -30 -15 l-30 0 0 -402 0 -403 23 -25 c102 -110 269 -270 282 -270 17
0 51 -18 73 -37 7 -7 22 -13 32 -13 10 0 25 -6 32 -12 22 -21 72 -54 91 -61
11 -4 15 -12 11 -19 -5 -8 -2 -9 9 -5 11 4 17 1 17 -7 0 -7 7 -19 16 -27 14
-11 14 -13 -2 -22 -21 -12 -104 -16 -104 -6 0 4 -6 6 -13 5 -6 0 -13 3 -14 8
-3 17 -34 29 -46 17 -8 -8 -7 -11 2 -11 11 0 11 -3 1 -15 -11 -13 -7 -15 29
-15 43 0 47 -5 42 -56 -1 -12 4 -22 11 -21 7 0 24 -1 38 -2 22 -1 23 -3 9 -14
-16 -12 -15 -42 1 -32 5 3 12 0 16 -6 4 -7 3 -9 -4 -5 -6 3 -13 2 -17 -3 -8
-14 -37 -1 -32 13 3 7 -8 21 -25 32 -16 10 -34 28 -39 39 -10 20 -10 20 5 1 9
-11 16 -15 16 -9 0 5 -9 20 -20 33 l-20 23 0 -35 c0 -24 -5 -38 -16 -42 -11
-4 -14 -13 -10 -31 5 -20 3 -25 -13 -25 -10 0 -22 7 -25 17 -6 14 -8 14 -21
-3 -9 -12 -14 -14 -15 -6 0 10 -11 12 -46 6 -36 -5 -47 -3 -57 11 -17 23 -65
10 -79 -21 -15 -33 -22 -30 -44 16 -18 37 -34 52 -34 31 0 -5 -13 -14 -30 -21
-25 -10 -28 -15 -19 -31 6 -13 6 -19 -1 -19 -6 0 -10 -26 -10 -62 l0 -63 45
-1 c52 -1 58 -5 49 -29 -6 -14 -15 -16 -51 -11 l-43 6 0 -230 c0 -217 1 -231
20 -250 11 -11 24 -20 28 -20 5 0 17 -9 26 -19 10 -11 32 -25 49 -32 38 -15
86 -58 87 -78 0 -11 3 -11 15 -1 8 7 15 9 15 5 0 -4 -8 -14 -18 -21 -16 -13
-16 -15 2 -28 11 -9 15 -20 10 -27 -4 -7 -9 -27 -11 -43 -2 -16 -10 -38 -19
-47 -19 -21 -9 -43 17 -36 12 3 23 -2 29 -13 5 -10 24 -21 41 -25 28 -6 29 -8
12 -21 -10 -7 -28 -14 -40 -14 -13 0 -23 -4 -23 -9 0 -21 79 -30 81 -8 0 6 5
-1 11 -18 8 -21 8 -30 -1 -33 -18 -6 -2 -22 23 -22 13 0 23 -6 23 -15 0 -8 -4
-15 -9 -15 -4 0 -8 5 -8 10 0 14 -38 12 -42 -2 -3 -9 -19 -8 -62 5 -31 9 -64
13 -72 10 -8 -3 -34 -1 -57 5 -23 6 -61 13 -85 17 l-43 5 1 -237 1 -238 47 -1
c26 -1 68 -5 95 -9 38 -6 47 -12 48 -29 1 -17 2 -17 6 -3 7 25 22 21 29 -8 3
-14 11 -25 18 -25 6 0 4 -5 -4 -10 -8 -6 -36 -8 -64 -4 -46 6 -49 5 -43 -15 4
-18 1 -21 -24 -21 -16 0 -29 5 -29 11 0 16 26 39 44 39 9 0 16 5 16 11 0 5 -8
9 -18 7 -9 -1 -24 1 -32 6 -12 7 -12 6 -3 -4 19 -21 -6 -38 -49 -32 l-38 5 0
-49 c0 -48 1 -50 43 -73 34 -18 47 -21 69 -12 20 7 29 7 38 -4 6 -8 18 -11 26
-8 8 3 23 -2 33 -11 10 -9 36 -20 57 -23 58 -9 78 -21 63 -39 -9 -11 -7 -14
10 -14 12 0 21 -6 21 -15 0 -14 5 -17 39 -19 17 -1 28 -26 12 -26 -6 0 -11 -7
-11 -15 0 -19 -4 -19 -41 0 -20 11 -35 13 -47 6 -12 -6 -36 -4 -72 6 -30 8
-68 17 -85 20 -16 3 -36 10 -44 16 -8 7 -23 10 -34 9 -11 -2 -23 0 -26 5 -3 4
-16 14 -29 21 -23 13 -23 13 -20 -45 l3 -58 40 -1 c22 -1 47 -4 55 -7 8 -3 43
-11 78 -17 34 -7 62 -16 62 -20 0 -4 10 -9 22 -10 13 -1 1240 -4 2728 -6
l2705 -4 17 20 c9 12 27 22 40 23 26 2 88 37 88 49 0 4 15 15 33 24 36 18 77
60 103 103 11 19 23 27 32 23 12 -4 14 -1 9 12 -5 13 -3 17 7 13 8 -3 18 4 25
19 6 13 16 24 22 24 7 0 10 12 7 29 -2 17 -1 28 2 26 4 -2 23 10 43 26 34 28
37 34 37 85 0 41 -4 54 -15 54 -8 0 -15 5 -15 10 0 12 17 13 24 1 9 -13 46 -1
46 15 0 25 -54 15 -109 -21 -30 -18 -68 -37 -85 -40 -17 -3 -51 -14 -76 -24
-119 -50 -217 -72 -360 -84 -203 -17 -527 -15 -615 3 -38 7 -74 14 -80 15 -5
1 -18 5 -28 9 -11 5 -23 4 -30 -3 -16 -16 -34 -14 -58 10 -16 16 -28 19 -62
14 -29 -5 -56 -1 -83 10 -23 9 -45 15 -50 13 -5 -1 -23 6 -41 15 -18 9 -38 17
-45 17 -16 0 -151 51 -158 60 -15 20 -44 27 -72 16 -22 -8 -31 -8 -37 3 -5 7
-42 30 -82 50 -41 20 -83 42 -94 48 -11 7 -41 21 -67 33 -26 12 -64 35 -85 52
-55 44 -102 64 -152 67 -46 2 -94 34 -164 108 -30 32 -65 46 -52 21 4 -7 1 -6
-7 3 -19 23 -56 30 -62 12 -8 -21 -26 -6 -26 22 0 14 -7 26 -19 30 -10 3 -31
17 -45 30 -27 25 -76 34 -76 15 0 -5 5 -10 12 -10 6 0 9 -2 6 -5 -2 -3 -19 2
-36 11 -18 8 -37 12 -43 9 -10 -7 -44 30 -44 48 0 10 -35 37 -47 37 -4 0 -8
-7 -8 -15 0 -9 -9 -15 -24 -15 -21 0 -24 5 -23 27 2 27 0 28 -55 31 -51 3 -57
1 -64 -20 -4 -13 -7 -27 -6 -32 2 -4 -9 -5 -23 -2 -16 4 -24 3 -21 -3 8 -12
-26 -23 -48 -15 -9 3 -13 10 -10 15 3 5 -2 12 -10 15 -9 3 -16 14 -16 24 0 21
-16 36 -22 20 -2 -6 -17 -3 -38 8 -25 12 -35 24 -37 42 0 14 -1 31 -2 38 -1 6
-11 12 -23 12 -40 1 -58 23 -58 70 0 33 -6 48 -25 66 -14 13 -25 31 -25 42 0
10 -14 28 -30 40 -21 16 -30 31 -30 52 0 19 -9 35 -25 48 -27 21 -33 42 -12
42 6 0 1 9 -13 20 -14 11 -19 20 -12 20 6 0 12 4 12 10 0 5 -6 7 -12 5 -17 -7
-60 59 -47 72 6 6 5 14 -5 22 -8 7 -12 20 -9 29 3 9 2 14 -2 9 -13 -11 -65 43
-65 67 0 24 -63 129 -99 167 -13 13 -29 38 -36 54 -8 17 -22 39 -32 50 -10 11
-36 55 -57 98 -20 42 -41 77 -47 77 -5 0 -9 9 -9 19 0 11 -5 23 -10 26 -6 4
-8 10 -5 15 3 5 1 11 -5 15 -5 3 -10 15 -10 25 0 10 -6 23 -12 27 -7 4 -13 14
-14 21 -1 6 -2 22 -3 35 -1 16 -4 18 -10 9 -5 -9 -11 5 -15 40 -12 93 -18 117
-29 115 -6 -1 -15 22 -19 53 -5 30 -12 57 -17 60 -14 9 -20 68 -27 242 -4 110
-3 172 4 180 5 7 15 38 21 68 30 160 57 259 78 293 4 6 8 20 8 31 1 10 9 23
18 28 24 13 22 58 -1 58 -15 0 -18 -6 -14 -30 4 -27 2 -30 -22 -30 -29 0 -45
25 -27 43 19 19 12 30 -13 23 -18 -4 -32 1 -50 18 -14 13 -26 28 -26 35 0 38
-39 -15 -40 -54 -1 -26 -2 -27 -11 -12 -6 9 -14 15 -20 12 -14 -9 -11 -41 5
-54 16 -14 42 -93 44 -135 2 -26 0 -28 -27 -23 -50 10 -55 -13 -11 -51 26 -22
40 -42 40 -58 0 -13 -4 -24 -9 -24 -5 0 -11 -10 -14 -21 -6 -20 -10 -21 -64
-14 -32 4 -67 8 -78 9 -11 1 -25 4 -30 8 -6 3 -21 0 -35 -8 -14 -7 -20 -13
-13 -14 32 -1 85 -80 53 -80 -5 0 -25 -13 -43 -30 -19 -16 -42 -30 -51 -30
-29 0 -17 -16 20 -26 l36 -9 -31 -39 c-17 -21 -31 -44 -31 -50 0 -11 -26 -24
-84 -42 -40 -12 -46 -34 -9 -34 16 0 34 5 41 12 19 19 21 6 8 -47 -9 -35 -18
-50 -30 -50 -14 0 -18 -11 -20 -63 -2 -62 -2 -63 30 -78 34 -16 50 -39 34 -49
-5 -3 -18 0 -29 7 -25 15 -29 11 -34 -32 -2 -19 -9 -46 -16 -59 -11 -19 -11
-25 0 -32 15 -9 22 -54 14 -78 -4 -11 -9 -10 -25 4 -11 10 -20 24 -20 32 0 19
-30 13 -44 -9 -8 -14 -4 -24 24 -54 19 -19 48 -45 64 -57 27 -19 30 -19 42 -3
12 17 13 16 24 -4 6 -12 9 -32 6 -44 -4 -17 9 -36 62 -90 37 -37 83 -76 102
-86 19 -10 46 -30 59 -44 14 -14 32 -26 41 -26 27 0 57 -32 76 -81 16 -39 49
-79 157 -192 15 -16 27 -34 27 -41 0 -6 18 -31 40 -54 22 -22 40 -49 40 -58 0
-11 5 -14 16 -10 21 8 41 -4 24 -14 -9 -6 -9 -13 -1 -28 16 -31 14 -55 -5 -48
-9 4 -13 2 -8 -5 3 -6 19 -9 34 -5 22 4 29 1 33 -14 3 -11 0 -23 -6 -27 -19
-11 -69 -14 -81 -4 -13 11 -55 9 -74 -3 -15 -9 -32 1 -32 19 0 22 -19 28 -36
11 -12 -12 -20 -14 -35 -5 -12 6 -18 16 -16 22 19 47 19 47 -5 47 -30 0 -41
-9 -28 -25 7 -8 5 -12 -5 -12 -8 0 -12 4 -9 9 3 4 -9 8 -25 8 -17 0 -31 5 -31
11 0 6 -9 9 -20 6 -11 -3 -20 -1 -20 4 0 5 -7 9 -15 9 -8 0 -14 -5 -13 -12 3
-12 -60 -30 -74 -22 -13 8 -38 -23 -38 -45 0 -28 -14 -26 -38 4 -15 19 -29 25
-61 25 -25 0 -41 5 -41 12 0 9 -3 9 -12 0 -23 -23 -41 -14 -34 18 4 23 2 30
-10 30 -8 0 -19 -10 -24 -23 -8 -20 -9 -19 -9 11 -1 31 -3 33 -28 29 -16 -2
-22 -2 -15 0 6 3 12 8 12 13 0 14 -15 19 -30 10 -20 -12 -63 19 -57 42 3 10 2
18 -3 18 -4 0 -15 16 -25 36 -14 30 -15 38 -4 46 11 7 11 11 1 15 -6 2 -10 8
-7 13 3 4 -3 14 -12 21 -13 11 -17 11 -21 1 -2 -8 -11 -4 -23 13 -11 13 -38
30 -60 36 -21 7 -39 18 -39 26 0 7 -6 13 -14 13 -9 0 -17 16 -22 43 -11 55
-11 59 -13 78 -1 11 -10 16 -33 15 -26 -1 -33 4 -38 24 -4 14 -12 24 -18 23
-7 -2 -14 8 -18 22 -3 14 -12 25 -20 25 -8 0 -14 5 -14 10 0 6 -36 47 -80 91
-44 44 -78 85 -74 90 6 10 -35 79 -48 79 -4 0 -13 18 -19 40 -7 22 -16 40 -21
40 -4 0 -8 9 -8 19 0 10 -7 21 -15 25 -8 3 -15 12 -15 21 0 8 -7 15 -14 15
-14 0 -76 114 -76 138 0 6 -7 15 -15 19 -13 7 -22 33 -24 69 -1 6 -13 29 -27
50 -15 21 -27 43 -29 49 -1 5 -6 18 -10 28 -4 10 -3 33 2 51 9 30 -1 76 -16
76 -4 0 -8 14 -9 31 -1 18 -5 36 -9 42 -3 5 -7 24 -9 41 -2 17 -8 76 -14 131
-6 55 -9 112 -7 128 2 15 0 27 -5 27 -4 0 -8 18 -8 41 0 22 3 38 8 36 9 -6 8
67 -2 113 -5 23 -2 47 7 70 7 19 13 61 12 93 -2 40 3 69 16 95 35 68 17 98
-53 89 -29 -4 -45 -1 -56 9 -9 10 -24 13 -41 9 -19 -4 -35 0 -53 14 -24 19
-38 19 -38 -1 0 -4 7 -8 16 -8 8 0 12 -4 9 -10 -3 -5 -32 -10 -64 -10 -53 0
-60 2 -87 35 -35 43 -61 56 -42 22z m218 -108 c0 -5 -7 -9 -15 -9 -9 0 -12 6
-9 15 6 15 24 11 24 -6z m84 -30 c28 -13 26 -29 -3 -29 -21 0 -44 23 -34 33 8
9 8 9 37 -4z m1626 -365 c0 -16 -26 -19 -35 -4 -3 6 -4 14 0 20 8 13 35 1 35
-16z m-52 -31 c-4 -22 -48 -31 -48 -10 0 19 10 27 32 27 13 0 18 -6 16 -17z
m22 -37 c0 -3 -4 -8 -10 -11 -5 -3 -10 -1 -10 4 0 6 5 11 10 11 6 0 10 -2 10
-4z m-230 -396 c0 -5 -14 -10 -31 -10 -17 0 -28 4 -24 10 3 6 17 10 31 10 13
0 24 -4 24 -10z m-65 -110 c3 -5 -3 -10 -15 -10 -12 0 -18 5 -15 10 3 6 10 10
15 10 5 0 12 -4 15 -10z m5 -81 c0 -18 -40 -69 -55 -69 -28 0 -25 21 7 50 34
32 48 37 48 19z m-60 -178 c0 -6 -4 -13 -10 -16 -5 -3 -10 1 -10 9 0 9 5 16
10 16 6 0 10 -4 10 -9z m0 -102 c0 -5 -4 -9 -10 -9 -5 0 -10 7 -10 16 0 8 5
12 10 9 6 -3 10 -10 10 -16z m-20 -58 c0 -11 -9 -23 -21 -26 -11 -4 -24 -16
-29 -28 l-9 -22 0 22 c-1 38 17 73 39 73 13 0 20 -7 20 -19z m40 15 c0 -3 -4
-8 -10 -11 -5 -3 -10 -1 -10 4 0 6 5 11 10 11 6 0 10 -2 10 -4z m-974 -405
c-3 -5 -15 -7 -26 -4 -28 7 -25 13 6 13 14 0 23 -4 20 -9z m-6 -50 c0 -5 -9
-7 -20 -4 -11 3 -20 7 -20 9 0 2 9 4 20 4 11 0 20 -4 20 -9z m-120 -51 c0 -5
-2 -10 -4 -10 -3 0 -8 5 -11 10 -3 6 -1 10 4 10 6 0 11 -4 11 -10z m-400 -75
c0 -8 -7 -15 -15 -15 -26 0 -18 20 13 29 1 1 2 -6 2 -14z m1440 -465 c0 -5 -4
-10 -10 -10 -5 0 -10 5 -10 10 0 6 5 10 10 10 6 0 10 -4 10 -10z m167 -62 c-3
-7 -5 -2 -5 12 0 14 2 19 5 13 2 -7 2 -19 0 -25z m33 -138 c0 -5 -4 -10 -10
-10 -5 0 -10 5 -10 10 0 6 5 10 10 10 6 0 10 -4 10 -10z m1307 -246 c-3 -3
-12 -4 -19 -1 -8 3 -5 6 6 6 11 1 17 -2 13 -5z m-67 -104 c0 -5 -9 -6 -20 -3
-20 5 -25 15 -13 26 7 8 33 -11 33 -23z m145 -10 c-3 -5 -12 -7 -20 -3 -21 7
-19 13 6 13 11 0 18 -4 14 -10z m11 -31 c9 -16 -12 -33 -31 -25 -14 5 -15 9
-5 21 15 18 26 19 36 4z m-2768 -606 c-32 -5 -38 -23 -8 -23 11 0 20 -4 20
-10 0 -5 -13 -10 -30 -10 -24 0 -30 -4 -30 -22 -1 -21 -2 -22 -14 -5 -7 9 -24
17 -37 17 -13 0 -30 4 -38 9 -19 12 4 24 34 17 13 -3 27 -1 30 5 10 15 46 28
75 27 24 -1 23 -1 -2 -5z m102 -3 c0 -5 -7 -10 -15 -10 -8 0 -15 5 -15 10 0 6
7 10 15 10 8 0 15 -4 15 -10z m-65 -200 c3 -5 -1 -10 -10 -10 -9 0 -13 5 -10
10 3 6 8 10 10 10 2 0 7 -4 10 -10z"/>
<path d="M2008 3763 c7 -3 16 -2 19 1 4 3 -2 6 -13 5 -11 0 -14 -3 -6 -6z"/>
<path d="M4776 3658 c39 -44 54 -58 66 -58 6 0 4 7 -5 18 -10 10 -17 22 -17
26 0 14 -28 36 -46 36 -16 0 -15 -2 2 -22z"/>
<path d="M4920 3551 c0 -5 9 -13 20 -16 11 -4 18 -10 15 -15 -3 -4 2 -10 10
-14 16 -6 19 2 7 20 -11 17 -52 36 -52 25z"/>
<path d="M1706 3505 c-9 -14 -19 -40 -21 -58 -3 -17 -3 -26 1 -19 3 6 12 12
19 12 16 0 31 25 36 59 5 33 -15 37 -35 6z"/>
<path d="M1640 3494 c0 -8 5 -12 10 -9 6 3 10 10 10 16 0 5 -4 9 -10 9 -5 0
-10 -7 -10 -16z"/>
<path d="M1585 3460 c3 -5 8 -10 11 -10 2 0 4 5 4 10 0 6 -5 10 -11 10 -5 0
-7 -4 -4 -10z"/>
<path d="M960 3450 c0 -5 5 -10 10 -10 6 0 10 5 10 10 0 6 -4 10 -10 10 -5 0
-10 -4 -10 -10z"/>
<path d="M1625 3420 c3 -5 8 -10 11 -10 2 0 4 5 4 10 0 6 -5 10 -11 10 -5 0
-7 -4 -4 -10z"/>
<path d="M1732 3400 c0 -14 2 -19 5 -12 2 6 2 18 0 25 -3 6 -5 1 -5 -13z"/>
<path d="M1020 3396 c0 -15 21 -26 47 -26 14 0 14 3 -2 20 -21 23 -45 26 -45
6z"/>
<path d="M880 3299 c0 -30 3 -39 9 -30 5 8 7 26 4 40 -7 42 -13 37 -13 -10z"/>
<path d="M1482 3319 c6 -20 75 -36 90 -21 16 16 9 21 -47 29 -38 5 -47 3 -43
-8z"/>
<path d="M902 3225 c0 -16 2 -22 5 -12 2 9 2 23 0 30 -3 6 -5 -1 -5 -18z"/>
<path d="M1560 3230 c0 -5 5 -10 10 -10 6 0 10 5 10 10 0 6 -4 10 -10 10 -5 0
-10 -4 -10 -10z"/>
<path d="M1425 3180 c-3 -6 1 -13 9 -16 9 -3 16 -15 16 -26 0 -10 -4 -17 -8
-14 -4 2 -8 -7 -9 -22 -1 -15 1 -21 4 -14 4 10 8 9 17 -4 11 -14 16 -15 37 -4
13 7 25 14 27 15 11 9 -31 65 -48 65 -11 0 -20 7 -20 15 0 17 -16 20 -25 5z
m70 -60 c3 -6 -1 -7 -9 -4 -18 7 -21 14 -7 14 6 0 13 -4 16 -10z"/>
<path d="M1096 3165 c4 -9 11 -14 16 -13 15 5 11 23 -6 26 -11 2 -14 -2 -10
-13z"/>
<path d="M1140 3129 c0 -5 10 -13 23 -18 12 -5 30 -19 40 -31 10 -12 21 -19
25 -15 4 3 -1 11 -11 16 -9 6 -17 16 -17 24 0 7 -13 18 -30 24 -19 6 -30 6
-30 0z"/>
<path d="M5470 3111 c0 -12 5 -21 10 -21 6 0 10 6 10 14 0 8 -4 18 -10 21 -5
3 -10 -3 -10 -14z"/>
<path d="M5600 2940 c0 -5 9 -10 20 -10 11 0 20 5 20 10 0 6 -9 10 -20 10 -11
0 -20 -4 -20 -10z"/>
<path d="M5673 2880 c-1 -10 5 -21 13 -24 8 -3 14 -1 14 4 0 6 -5 10 -11 10
-5 0 -8 4 -4 9 3 5 2 12 -3 15 -4 2 -8 -4 -9 -14z"/>
<path d="M1300 2840 c0 -5 5 -10 10 -10 6 0 10 5 10 10 0 6 -4 10 -10 10 -5 0
-10 -4 -10 -10z"/>
<path d="M1293 2714 c-18 -18 -16 -24 7 -24 11 0 20 6 20 14 0 21 -13 26 -27
10z"/>
<path d="M1341 2621 c-9 -6 -10 -11 -2 -15 6 -4 11 -4 11 1 0 4 5 1 10 -7 7
-11 12 -12 21 -3 14 14 -21 36 -40 24z"/>
<path d="M5710 2570 c0 -5 5 -10 11 -10 5 0 7 5 4 10 -3 6 -8 10 -11 10 -2 0
-4 -4 -4 -10z"/>
<path d="M495 2280 c-3 -5 -1 -10 4 -10 6 0 11 5 11 10 0 6 -2 10 -4 10 -3 0
-8 -4 -11 -10z"/>
<path d="M1423 1705 c0 -8 4 -12 9 -9 4 3 8 9 8 15 0 5 -4 9 -8 9 -5 0 -9 -7
-9 -15z"/>
<path d="M1668 1698 c-4 -10 -3 -18 2 -18 5 0 10 -7 12 -17 3 -15 4 -15 17 0
11 15 11 17 -2 17 -9 0 -17 8 -19 18 -3 16 -4 16 -10 0z"/>
<path d="M2000 1620 c0 -5 5 -10 10 -10 6 0 10 5 10 10 0 6 -4 10 -10 10 -5 0
-10 -4 -10 -10z"/>
<path d="M195 1190 c3 -5 10 -10 16 -10 5 0 9 5 9 10 0 6 -7 10 -16 10 -8 0
-12 -4 -9 -10z"/>
<path d="M3 415 c0 -8 4 -15 9 -15 4 0 8 4 8 9 0 6 -4 12 -8 15 -5 3 -9 -1 -9
-9z"/>
<path d="M170 145 c0 -9 5 -15 11 -13 6 2 11 8 11 13 0 5 -5 11 -11 13 -6 2
-11 -4 -11 -13z"/>
<path d="M232 148 c5 -15 28 -18 29 -3 0 6 -7 12 -17 13 -10 3 -15 -1 -12 -10z"/>
</g>
</svg>
